<?xml version="1.0" encoding="UTF-8" standalone="no"?>
<!-- Generated by IcoMoon.io -->

<svg
   xmlns:dc="http://purl.org/dc/elements/1.1/"
   xmlns:cc="http://creativecommons.org/ns#"
   xmlns:rdf="http://www.w3.org/1999/02/22-rdf-syntax-ns#"
   xmlns:svg="http://www.w3.org/2000/svg"
   xmlns="http://www.w3.org/2000/svg"
   xmlns:sodipodi="http://sodipodi.sourceforge.net/DTD/sodipodi-0.dtd"
   xmlns:inkscape="http://www.inkscape.org/namespaces/inkscape"
   version="1.1"
   width="326.00433"
   height="166.99641"
   viewBox="0 0 326.00433 166.99641"
   id="svg2"
   inkscape:version="0.91 r13725"
   sodipodi:docname="operatives.svg">
  <metadata
     id="metadata13">
    <rdf:RDF>
      <cc:Work
         rdf:about="">
        <dc:format>image/svg+xml</dc:format>
        <dc:type
           rdf:resource="http://purl.org/dc/dcmitype/StillImage" />
        <dc:title></dc:title>
      </cc:Work>
    </rdf:RDF>
  </metadata>
  <defs
     id="defs11" />
  <sodipodi:namedview
     pagecolor="#ffffff"
     bordercolor="#666666"
     borderopacity="1"
     objecttolerance="10"
     gridtolerance="10"
     guidetolerance="10"
     inkscape:pageopacity="0"
     inkscape:pageshadow="2"
     inkscape:window-width="2479"
     inkscape:window-height="1410"
     id="namedview9"
     showgrid="false"
     inkscape:zoom="1.4142136"
     inkscape:cx="119.00606"
     inkscape:cy="-195.5209"
     inkscape:window-x="81"
     inkscape:window-y="30"
     inkscape:window-maximized="1"
     inkscape:current-layer="layer1"
     fit-margin-top="0"
     fit-margin-left="0"
     fit-margin-right="0"
     fit-margin-bottom="0" />
  <g
     id="icomoon-ignore"
     transform="translate(-13.683603,-280.50552)" />
  <g
     inkscape:groupmode="layer"
     id="layer1"
     inkscape:label="Layer 1"
     transform="translate(-13.683603,-280.50552)" />
  <g
     inkscape:groupmode="layer"
     id="layer2"
     inkscape:label="Layer 2"
     transform="translate(-13.683603,-280.50552)">
    <path
       d="m 163.16153,434.6532 9.63421,-44.95965 -9.63421,-12.84562 -12.84562,-6.4228 z m 25.69123,0 12.84561,-64.22807 -12.84561,6.4228 -9.63421,12.84562 z m 16.05702,-101.35993 c -0.10036,-0.20071 -0.20072,-0.40142 -0.40143,-0.60214 -0.90321,-0.70249 -8.12886,-0.80285 -9.63421,-0.80285 -5.72031,0 -11.13956,0.80285 -16.75951,1.90677 -0.7025,0.20072 -1.40499,0.20072 -2.10749,0.20072 -0.70249,0 -1.40499,0 -2.10748,-0.20072 -5.61996,-1.10392 -11.0392,-1.90677 -16.75951,-1.90677 -1.50535,0 -8.73101,0.10036 -9.63422,0.80285 -0.20071,0.20072 -0.30106,0.40143 -0.40142,0.60214 0.10036,0.90321 0.20071,1.80642 0.40142,2.70962 0.60214,0.80285 1.10392,0.50179 1.50535,1.70606 2.60927,7.1253 3.81354,12.6449 12.84561,12.6449 12.94598,0 9.33315,-11.9424 13.54811,-11.9424 l 1.20428,0 c 4.21497,0 0.60214,11.9424 13.54811,11.9424 9.03207,0 10.23635,-5.5196 12.84562,-12.6449 0.40142,-1.20427 0.9032,-0.90321 1.50534,-1.70606 0.20071,-0.9032 0.30107,-1.80641 0.40143,-2.70962 z m 41.74824,88.21325 c 0,7.02521 0.0245,25.9976 0.002,25.99541 -0.0372,-0.004 -17.63565,-0.003 -26.79676,-0.003 l -87.71146,0 c -7.53558,0 -26.79693,0.002 -26.79693,0.002 0,1e-4 0.002,-17.31349 0.002,-25.99471 0,-18.1645 3.2114,-45.66215 21.87769,-54.69422 l -9.03207,-22.0784 21.47626,0 c -1.40499,-4.11461 -2.20784,-8.42994 -2.20784,-12.84562 0,-1.10392 0.10035,-2.20784 0.20071,-3.2114 -3.9139,-0.80285 -19.46913,-4.01426 -19.46913,-9.63421 0,-5.92103 17.06058,-9.13243 21.07483,-9.93528 2.10749,-7.52673 7.1253,-18.96736 12.24348,-24.88838 2.00713,-2.3082 4.51604,-3.71319 7.62708,-3.71319 6.02138,0 10.83849,6.2221 16.85987,6.2221 6.02138,0 10.83849,-6.2221 16.85987,-6.2221 3.11105,0 5.61996,1.40499 7.62709,3.71319 5.11817,5.92102 10.13599,17.36165 12.24347,24.88838 4.01426,0.80285 21.07484,4.01425 21.07484,9.93528 0,5.61995 -15.55524,8.83136 -19.46914,9.63421 0.50179,5.41924 -0.20071,10.83849 -2.00712,16.05702 l 21.47626,0 -8.22922,22.58018 c 17.96379,9.33314 21.07483,36.329 21.07483,54.19244 z"
       id="path7"
       inkscape:connector-curvature="0"
       style="fill:#ffffff"
       sodipodi:nodetypes="ccccccccccccscscsccccsssscccsssscscccscsccsssccsccccs" />
    <path
       d="m 56.636682,437.94633 7.158759,-33.40755 -7.158759,-9.54501 -9.545016,-4.7725 z m 19.090024,0 9.545007,-47.72506 -9.545007,4.7725 -7.158758,9.54501 z m 11.931263,-75.31612 c -0.07455,-0.14913 -0.14914,-0.29827 -0.298279,-0.44742 -0.671135,-0.52199 -6.040207,-0.59656 -7.158761,-0.59656 -4.250511,0 -8.277317,0.59656 -12.453256,1.41683 -0.521996,0.14915 -1.043986,0.14915 -1.565983,0.14915 -0.521989,0 -1.043986,0 -1.565975,-0.14915 -4.175945,-0.82027 -8.202745,-1.41683 -12.453255,-1.41683 -1.118561,0 -6.48763,0.0745 -7.158766,0.59656 -0.149139,0.14915 -0.223705,0.29829 -0.298278,0.44742 0.07458,0.67114 0.149139,1.34228 0.298278,2.0134 0.447424,0.59656 0.820274,0.37287 1.11856,1.2677 1.938833,5.2945 2.833674,9.39587 9.545008,9.39587 9.619588,0 6.935053,-8.87388 10.067004,-8.87388 l 0.894848,0 c 3.13196,0 0.447423,8.87388 10.067005,8.87388 6.711332,0 7.60618,-4.10137 9.545017,-9.39587 0.29828,-0.89483 0.671125,-0.67114 1.118554,-1.2677 0.149139,-0.67112 0.223714,-1.34226 0.298279,-2.0134 z m 31.021281,65.54739 c 0,5.22013 0.0181,19.31767 0.002,19.31605 -0.0277,-0.003 -13.10427,-0.002 -19.91149,-0.002 l -65.174528,0 c -5.599367,0 -19.911629,0.002 -19.911629,0.002 0,9e-5 0.0014,-12.86489 0.0014,-19.31552 0,-13.49724 2.38625,-33.92954 16.256349,-40.64087 l -6.711335,-16.40549 15.958073,0 c -1.043986,-3.05739 -1.640549,-6.26391 -1.640549,-9.54503 0,-0.82027 0.07457,-1.64054 0.149139,-2.38624 -2.908247,-0.59655 -14.466663,-2.98282 -14.466663,-7.15876 0,-4.39965 12.676975,-6.78591 15.659788,-7.38246 1.565984,-5.59279 5.294498,-14.09381 9.097592,-18.49347 1.49141,-1.71512 3.355671,-2.75911 5.667347,-2.75911 4.474224,0 8.053606,4.62337 12.52783,4.62337 4.474222,0 8.053604,-4.62337 12.527828,-4.62337 2.311684,0 4.175947,1.04399 5.667354,2.75911 3.80309,4.39966 7.531604,12.90068 9.097587,18.49347 2.982816,0.59655 15.659787,2.98281 15.659787,7.38246 0,4.17594 -11.558418,6.56221 -14.466668,7.15876 0.372863,4.02681 -0.149131,8.05361 -1.491399,11.93127 l 15.958067,0 -6.11477,16.77833 c 13.3481,6.93506 15.65977,26.99449 15.65977,40.26803 z"
       id="path7-3"
       inkscape:connector-curvature="0"
       style="color:#000000;clip-rule:nonzero;display:inline;overflow:visible;visibility:visible;opacity:0.5;isolation:auto;mix-blend-mode:normal;color-interpolation:sRGB;color-interpolation-filters:linearRGB;solid-color:#000000;solid-opacity:1;fill:#ffffff;fill-opacity:1;fill-rule:nonzero;stroke-width:1;stroke-linecap:butt;stroke-linejoin:miter;stroke-miterlimit:4;stroke-dasharray:none;stroke-dashoffset:0;stroke-opacity:1;color-rendering:auto;image-rendering:auto;shape-rendering:auto;text-rendering:auto;enable-background:accumulate"
       sodipodi:nodetypes="ccccccccccccscscsccccsssscccsssscscccscsccsssccsccccs" />
    <path
       sodipodi:nodetypes="ccccccccccccscscsccccsssscccsssscscccscsccsssccsccccs"
       style="color:#000000;clip-rule:nonzero;display:inline;overflow:visible;visibility:visible;opacity:0.5;isolation:auto;mix-blend-mode:normal;color-interpolation:sRGB;color-interpolation-filters:linearRGB;solid-color:#000000;solid-opacity:1;fill:#ffffff;fill-opacity:1;fill-rule:nonzero;stroke-width:1;stroke-linecap:butt;stroke-linejoin:miter;stroke-miterlimit:4;stroke-dasharray:none;stroke-dashoffset:0;stroke-opacity:1;color-rendering:auto;image-rendering:auto;shape-rendering:auto;text-rendering:auto;enable-background:accumulate"
       inkscape:connector-curvature="0"
       id="path4208"
       d="m 277.63668,437.94633 7.15876,-33.40755 -7.15876,-9.54501 -9.54502,-4.7725 z m 19.09003,0 9.545,-47.72506 -9.545,4.7725 -7.15877,9.54501 z m 11.93125,-75.31612 c -0.0745,-0.14913 -0.14913,-0.29827 -0.29827,-0.44742 -0.67114,-0.52199 -6.04021,-0.59656 -7.15876,-0.59656 -4.25051,0 -8.27732,0.59656 -12.45326,1.41683 -0.52199,0.14915 -1.04398,0.14915 -1.56598,0.14915 -0.52199,0 -1.04399,0 -1.56597,-0.14915 -4.17596,-0.82027 -8.20275,-1.41683 -12.45326,-1.41683 -1.11856,0 -6.48763,0.0745 -7.15876,0.59656 -0.14914,0.14915 -0.22371,0.29829 -0.29828,0.44742 0.0745,0.67114 0.14914,1.34228 0.29828,2.0134 0.44742,0.59656 0.82027,0.37287 1.11855,1.2677 1.93884,5.2945 2.83368,9.39587 9.54501,9.39587 9.61959,0 6.93505,-8.87388 10.06701,-8.87388 l 0.89485,0 c 3.13195,0 0.44742,8.87388 10.067,8.87388 6.71133,0 7.60618,-4.10137 9.54502,-9.39587 0.29828,-0.89483 0.67112,-0.67114 1.11855,-1.2677 0.14914,-0.67112 0.22371,-1.34226 0.29827,-2.0134 z m 31.02129,65.54739 c 0,5.22013 0.0181,19.31767 0.002,19.31605 -0.0277,-0.003 -13.10427,-0.002 -19.91149,-0.002 l -65.17453,0 c -5.59937,0 -19.91163,0.002 -19.91163,0.002 0,9e-5 0.002,-12.86489 0.002,-19.31552 0,-13.49724 2.38625,-33.92954 16.25635,-40.64087 l -6.71134,-16.40549 15.95808,0 c -1.04399,-3.05739 -1.64055,-6.26391 -1.64055,-9.54503 0,-0.82027 0.0745,-1.64054 0.14914,-2.38624 -2.90824,-0.59655 -14.46667,-2.98282 -14.46667,-7.15876 0,-4.39965 12.67698,-6.78591 15.65979,-7.38246 1.56598,-5.59279 5.2945,-14.09381 9.0976,-18.49347 1.4914,-1.71512 3.35566,-2.75911 5.66735,-2.75911 4.47422,0 8.0536,4.62337 12.52782,4.62337 4.47422,0 8.05361,-4.62337 12.52783,-4.62337 2.31169,0 4.17594,1.04399 5.66736,2.75911 3.80309,4.39966 7.5316,12.90068 9.09758,18.49347 2.98282,0.59655 15.65979,2.98281 15.65979,7.38246 0,4.17594 -11.55842,6.56221 -14.46666,7.15876 0.37285,4.0268 -0.14914,8.05361 -1.49141,11.93127 l 15.95807,0 -6.11478,16.77833 c 13.34811,6.93506 15.65978,26.99449 15.65978,40.26803 z" />
  </g>
</svg>
