<?xml version="1.0" encoding="UTF-8" standalone="no"?>
<!-- Generated by IcoMoon.io -->

<svg
   xmlns:dc="http://purl.org/dc/elements/1.1/"
   xmlns:cc="http://creativecommons.org/ns#"
   xmlns:rdf="http://www.w3.org/1999/02/22-rdf-syntax-ns#"
   xmlns:svg="http://www.w3.org/2000/svg"
   xmlns="http://www.w3.org/2000/svg"
   xmlns:sodipodi="http://sodipodi.sourceforge.net/DTD/sodipodi-0.dtd"
   xmlns:inkscape="http://www.inkscape.org/namespaces/inkscape"
   version="1.1"
   width="352"
   height="448"
   viewBox="0 0 352 448"
   id="svg2"
   inkscape:version="0.91 r13725"
   sodipodi:docname="user-secret.svg">
  <metadata
     id="metadata13">
    <rdf:RDF>
      <cc:Work
         rdf:about="">
        <dc:format>image/svg+xml</dc:format>
        <dc:type
           rdf:resource="http://purl.org/dc/dcmitype/StillImage" />
      </cc:Work>
    </rdf:RDF>
  </metadata>
  <defs
     id="defs11" />
  <sodipodi:namedview
     pagecolor="#ffffff"
     bordercolor="#666666"
     borderopacity="1"
     objecttolerance="10"
     gridtolerance="10"
     guidetolerance="10"
     inkscape:pageopacity="0"
     inkscape:pageshadow="2"
     inkscape:window-width="2479"
     inkscape:window-height="1410"
     id="namedview9"
     showgrid="false"
     inkscape:zoom="1.4142136"
     inkscape:cx="150.39708"
     inkscape:cy="276.79788"
     inkscape:window-x="81"
     inkscape:window-y="30"
     inkscape:window-maximized="1"
     inkscape:current-layer="svg2" />
  <title
     id="title4" />
  <g
     id="icomoon-ignore" />
  <path
     d="m 144,384 24,-112 -24,-32 -32,-16 z m 64,0 32,-160 -32,16 -24,32 z m 40,-252.5 c -0.25,-0.5 -0.5,-1 -1,-1.5 -2.25,-1.75 -20.25,-2 -24,-2 -14.25,0 -27.75,2 -41.75,4.75 -1.75,0.5 -3.5,0.5 -5.25,0.5 -1.75,0 -3.5,0 -5.25,-0.5 C 156.75,130 143.25,128 129,128 c -3.75,0 -21.75,0.25 -24,2 -0.5,0.5 -0.75,1 -1,1.5 0.25,2.25 0.5,4.5 1,6.75 1.5,2 2.75,1.25 3.75,4.25 6.5,17.75 9.5,31.5 32,31.5 32.25,0 23.25,-29.75 33.75,-29.75 l 3,0 c 10.5,0 1.5,29.75 33.75,29.75 22.5,0 25.5,-13.75 32,-31.5 1,-3 2.25,-2.25 3.75,-4.25 0.5,-2.25 0.75,-4.5 1,-6.75 z m 104,219.75 c 0,17.50066 0.0609,64.76322 0.004,64.75775 C 351.91126,415.99891 308.07144,416 285.25,416 l -218.5,0 c -18.772043,0 -66.75442664,0.006 -66.75442664,0.006 C -0.00442664,416.00626 0,372.87598 0,351.25 0,306 8,237.5 54.5,215 L 32,160 85.5,160 C 82,149.75 80,139 80,128 c 0,-2.75 0.25,-5.5 0.5,-8 C 70.75,118 32,110 32,96 32,81.25 74.5,73.25 84.5,71.25 89.75,52.5 102.25,24 115,9.25 120,3.5 126.25,0 134,0 c 15,0 27,15.5 42,15.5 15,0 27,-15.5 42,-15.5 7.75,0 14,3.5 19,9.25 12.75,14.75 25.25,43.25 30.5,62 10,2 52.5,10 52.5,24.75 0,14 -38.75,22 -48.5,24 1.25,13.5 -0.5,27 -5,40 l 53.5,0 -20.5,56.25 c 44.75,23.25 52.5,90.5 52.5,135 z"
     id="path7"
     inkscape:connector-curvature="0"
     style="fill:#ffffff"
     sodipodi:nodetypes="ccccccccccccscscsccccsssscccsssscscccscsccsssccsccccs" />
</svg>
